<?xml version="1.0" standalone="no"?>
<!DOCTYPE svg PUBLIC "-//W3C//DTD SVG 1.1//EN" "http://www.w3.org/Graphics/SVG/1.1/DTD/svg11.dtd" >
<svg>
<metadata>
Created by FontForge 20130207 at Tue Apr 30 20:34:33 2013
 By Yann Gouffon
Copyright (c) 2010 by Svetoslav Simov. All rights reserved.
</metadata>
<defs>
<font id="Dekar" horiz-adv-x="472" >
  <font-face 
    font-family="Dekar"
    font-weight="400"
    font-stretch="normal"
    units-per-em="1000"
    panose-1="2 0 0 0 0 0 0 0 0 0"
    ascent="750"
    descent="-250"
    x-height="490"
    cap-height="701"
    bbox="-54 -220 794 840"
    underline-thickness="50"
    underline-position="-50"
    unicode-range="U+0020-20AC"
  />
<missing-glyph horiz-adv-x="238" 
 />
    <glyph glyph-name=".notdef" horiz-adv-x="238" 
 />
    <glyph glyph-name=".null" horiz-adv-x="0" 
 />
    <glyph glyph-name="nonmarkingreturn" horiz-adv-x="333" 
 />
    <glyph glyph-name="space" unicode=" " horiz-adv-x="238" 
 />
    <glyph glyph-name="exclam" unicode="!" horiz-adv-x="184" 
d="M119 702v-550h-53v550h53zM120 72v-72h-57v72h57z" />
    <glyph glyph-name="quotedbl" unicode="&#x22;" horiz-adv-x="224" 
d="M178 702v-166h-48v166h48zM86 702v-166h-48v166h48z" />
    <glyph glyph-name="ampersand" unicode="&#x26;" horiz-adv-x="600" 
d="M452 333h-175q-114 0 -156 -42q-19 -19 -19 -45v-118q0 -40 54 -63t121 -23t121 23t54 63v205zM486 573v-54h-48v54q0 41 -48 64t-114 23t-112 -23q-48 -23 -48 -64v-109q0 -44 46 -66t115 -21h297v-44h-72v-205q0 -64 -68 -100t-157 -36t-157 36t-68 100v118q0 45 33 73
t81 35q-47 8 -74 39t-27 71v109q0 64 63 100t149 36q85 1 147 -35t62 -101z" />
    <glyph glyph-name="quotesingle" unicode="'" horiz-adv-x="156" 
d="M106 702v-166h-48v166h48z" />
    <glyph glyph-name="parenleft" unicode="(" horiz-adv-x="223" 
d="M191 -119h-50q-45 91 -62 263t0 342q17 172 62 263h50q-45 -91 -62 -263t0 -342q17 -172 62 -263z" />
    <glyph glyph-name="parenright" unicode=")" horiz-adv-x="239" 
d="M90 -119h-50q45 91 62 263t0 342q-17 172 -62 263h50q45 -91 62 -263t0 -342q-17 -172 -62 -263z" />
    <glyph glyph-name="plus" unicode="+" horiz-adv-x="415" 
d="M233 444v-133h136v-48h-136v-136h-48v136h-133v48h133v133h48z" />
    <glyph glyph-name="comma" unicode="," horiz-adv-x="224" 
d="M80 2v67h60v-67q0 -59 -54 -53v22q8 -1 14 9t2 22h-22z" />
    <glyph glyph-name="hyphen" unicode="-" horiz-adv-x="317" 
d="M43 299h215v-50h-215v50z" />
    <glyph glyph-name="period" unicode="." horiz-adv-x="205" 
d="M67 -1v68h60v-68h-60z" />
    <glyph glyph-name="zero" unicode="0" horiz-adv-x="522" 
d="M49 129v446q-1 51 43 86t106 43t124 0t106 -43t43 -86v-446q1 -51 -43 -87t-106 -44t-124 0t-106 44t-43 87zM100 575v-442q0 -13 3 -25q17 -48 108 -62t154 15l-252 553q-13 -18 -13 -39zM420 133l1 442q0 31 -29 53t-70 30q-94 18 -168 -14l253 -555q13 17 13 44z" />
    <glyph glyph-name="one" unicode="1" horiz-adv-x="243" 
d="M27 700h157v-700h-51v648h-106v52z" />
    <glyph glyph-name="two" unicode="2" horiz-adv-x="491" 
d="M90 82q0 -22 8 -28t31 -6h325v-48h-326q-48 0 -68 17t-20 65v47q0 94 75 150q54 41 128 75q74 35 98 49q69 40 67 123q0 58 -47 97q-76 62 -196 27q-29 -8 -51 -32t-23 -55h-50q0 45 28 78t73 49h1q55 21 130 15t129 -52t56 -126q0 -112 -92 -164q-25 -15 -70 -35
q-90 -40 -147 -79t-59 -121v-46z" />
    <glyph glyph-name="three" unicode="3" 
d="M428 566v-106q0 -71 -73 -110q73 -37 73 -109v-106q0 -64 -56 -99t-125 -36h-208v51h203v-1l4 1q47 -1 89 21t42 63v106q-1 41 -43 64t-88 23h-207v44h207q46 0 88 24t43 64v106q0 40 -42 62t-89 22h-207v51l208 -1q69 0 125 -35t56 -99z" />
    <glyph glyph-name="four" unicode="4" horiz-adv-x="503" 
d="M404 229v471h50v-700h-50v179h-281q-65 1 -87 55t15 107l174 359h59l-190 -384q-18 -24 -10 -56t41 -31h279z" />
    <glyph glyph-name="five" unicode="5" horiz-adv-x="530" 
d="M146 381q-89 0 -89 92v227h406v-51h-355v-173q0 -25 10 -35t33 -10h114q121 1 179 -51q38 -34 38 -86v-165q0 -47 -32 -79t-78 -44t-104 -12t-103 12t-76 45q-31 32 -30 78h49q0 -85 160 -87q99 -2 142 38q22 20 23 49v165q-1 31 -36 59t-129 28h-122z" />
    <glyph glyph-name="six" unicode="6" horiz-adv-x="519" 
d="M276 326h-176v-197h-1q2 -55 81 -77q34 -9 84 -9t85 10q75 22 75 78l-1 108q0 66 -94 83q-24 4 -53 4zM50 569q0 105 154 135q76 14 142 -4q129 -37 127 -130l-49 1q0 55 -73 76t-135 9t-88 -32q-28 -20 -28 -55v-193h174q101 0 150 -42t49 -95v-107q0 -95 -111 -127
q-40 -11 -98 -11t-104 12t-77 44q-32 32 -33 79v440z" />
    <glyph glyph-name="seven" unicode="7" horiz-adv-x="478" 
d="M25 650v50h337q66 -2 88 -56t-15 -106l-322 -538h-59l338 563q18 23 10 55t-41 32h-336z" />
    <glyph glyph-name="eight" unicode="8" horiz-adv-x="545" 
d="M272 336q-66 0 -120 -25t-55 -65v-118q0 -40 54 -63t121 -23t121 23t54 63v118q-1 40 -55 65t-120 25zM272 661q-66 0 -114 -23t-48 -63v-110q0 -41 48 -65t114 -24q64 0 112 24t49 65v110q0 40 -48 63q-47 23 -113 23zM484 575v-110q0 -39 -26 -69t-67 -42q44 -8 75 -36
t31 -72v-118q-1 -64 -69 -100t-156 -36t-157 36t-69 100v118q0 42 31 71t75 37q-42 12 -67 42t-25 69v110q0 64 63 100t149 36t149 -36t63 -100z" />
    <glyph glyph-name="nine" unicode="9" horiz-adv-x="519" 
d="M419 363v210q0 57 -80 77q-35 10 -85 10q-160 -2 -159 -89v-121q2 -87 148 -87h176zM469 131q0 -105 -154 -135q-77 -14 -143 5q-128 36 -127 129h50q0 -56 73 -76t134 -10q61 12 89 32t28 56v181h-174q-102 -1 -151 41t-49 96l1 120q-1 95 110 127q40 11 98 11t104 -12
t78 -44t33 -79v-442z" />
    <glyph glyph-name="colon" unicode=":" horiz-adv-x="215" 
d="M67 364v68h60v-68h-60zM67 -1v68h60v-68h-60z" />
    <glyph glyph-name="semicolon" unicode=";" horiz-adv-x="197" 
d="M66 1v67h60v-67q0 -59 -54 -53v22q8 0 14 10t2 21h-22zM67 364v68h60v-68h-60z" />
    <glyph glyph-name="equal" unicode="=" horiz-adv-x="491" 
d="M60 443h349v-50h-349v50zM60 299h349v-50h-349v50z" />
    <glyph glyph-name="question" unicode="?" horiz-adv-x="483" 
d="M197 -1v59h55v-59h-55zM250 115h-50v113q0 20 4 38t4 28t8 22q8 13 12 17q2 3 18 15t20 16q6 4 30 16q24 14 35 21q69 41 67 127q0 58 -47 97q-73 61 -196 27q-29 -9 -51 -33t-23 -55h-50q0 91 107 130q50 18 125 12t129 -50t56 -128q2 -113 -92 -166q-14 -8 -50 -28
t-46 -38q-10 -19 -10 -181z" />
    <glyph glyph-name="at" unicode="@" horiz-adv-x="500" 
 />
    <glyph glyph-name="A" unicode="A" horiz-adv-x="534" 
d="M100 572v-248h324v248q0 37 -41 62t-122 25q-81 -1 -121 -25t-40 -62zM473 572h1v-572h-50v274h-324v-274h-50v572q0 66 58 101t154 35q95 0 153 -35t58 -101z" />
    <glyph glyph-name="B" unicode="B" horiz-adv-x="534" 
d="M486 238v-96q0 -70 -60 -106t-138 -36h-239l1 700h238q67 0 121 -32t55 -95v-116q-1 -64 -60 -98l-3 -2q85 -39 85 -119zM289 330h-190v-280h189q63 0 106 26t43 66v96q1 40 -41 66t-107 26zM99 650v-270h188q57 0 92 22t35 57v114q0 35 -36 56t-90 21h-189z" />
    <glyph glyph-name="C" unicode="C" horiz-adv-x="516" 
d="M474 570h-50q0 52 -67 75q-71 23 -137 11q-120 -22 -120 -86v-439q0 -55 80 -77q34 -9 84 -9t85 10q75 21 75 76l50 1q0 -47 -30 -79q-30 -33 -76 -45t-104 -12t-104 12t-77 44q-32 32 -33 79v439q0 52 38 86t88 42q109 21 203 -10q95 -31 95 -118z" />
    <glyph glyph-name="D" unicode="D" horiz-adv-x="529" 
d="M286 0h-236v701h243q70 0 126 -35t56 -100v-430q1 -66 -57 -101t-132 -35zM424 566q0 41 -42 63t-90 22h-191v-600h185q43 -1 83 15t51 49q4 11 4 451z" />
    <glyph glyph-name="E" unicode="E" 
d="M100 651v-275h322v-51h-322q0 -200 4 -211q11 -32 51 -48t82 -15h185v-51h-185v1q-71 -1 -129 33t-58 101v566h372v-50h-322z" />
    <glyph glyph-name="F" unicode="F" horiz-adv-x="460" 
d="M49 0v701h374v-50h-323v-279h273v-51h-273l-1 -321h-50z" />
    <glyph glyph-name="G" unicode="G" horiz-adv-x="527" 
d="M474 346v-220q0 -46 -30 -78t-76 -45t-103 -13t-103 12t-79 44q-32 32 -33 80v449q2 106 158 134q82 15 147 -7q119 -40 119 -128l-50 1q0 51 -68 75t-136 10q-120 -22 -120 -86v-448q0 -57 82 -79t162 1t80 78v174h-138v46h188z" />
    <glyph glyph-name="H" unicode="H" horiz-adv-x="514" 
d="M409 324h-310v-324h-49v701h49v-327h310v327h50v-701h-50v324z" />
    <glyph glyph-name="I" unicode="I" horiz-adv-x="179" 
d="M63 701h50v-701h-50v701z" />
    <glyph glyph-name="J" unicode="J" horiz-adv-x="414" 
d="M361 700v-573q-1 -51 -35 -87t-83 -44t-98 2q-49 8 -83 43t-34 85l50 -1q0 -33 24 -55t58 -28t68 -1t58 27t24 52q0 486 -1 580h52z" />
    <glyph glyph-name="K" unicode="K" horiz-adv-x="531" 
d="M308 346q175 0 175 -129v-217h-50v217q0 46 -37 66t-88 20h-206v-303h-49v700h49v-354h17l324 354h61v-10l-324 -344h128z" />
    <glyph glyph-name="L" unicode="L" horiz-adv-x="410" 
d="M240 51h145v-51h-145q-82 0 -136 36t-54 114v550h51v-550q0 -51 42 -75t97 -24z" />
    <glyph glyph-name="M" unicode="M" horiz-adv-x="660" 
d="M600 700v-700h-51v561l7 71h-3l-21 -67l-186 -397h-41l-186 397l-21 67h-3l7 -71v-561h-51v700h62l212 -466l213 466h62z" />
    <glyph glyph-name="N" unicode="N" horiz-adv-x="530" 
d="M474 700v-700h-53l-301 565l-25 67h-4l9 -71v-561h-50v700h54l301 -565l25 -66h3l-9 71v560h50z" />
    <glyph glyph-name="O" unicode="O" horiz-adv-x="525" 
d="M51 128v446q-1 51 43 86t106 43t124 0t106 -43t43 -86v-446q1 -52 -43 -88t-106 -43q-62 -8 -124 0q-62 7 -106 43t-43 88zM419 107q3 6 3 26l1 441q0 34 -33 57q-32 23 -80 28t-96 0t-80 -28q-33 -23 -33 -57l1 -441q0 -20 3 -26q13 -41 85 -58t144 0t85 58z" />
    <glyph glyph-name="P" unicode="P" horiz-adv-x="460" 
d="M238 270h-138v-270h-49v700h188q69 0 127 -34t58 -100v-161q0 -63 -55 -99t-131 -36zM100 320h138q55 0 96 22t41 63v161q1 44 -43 64t-93 21h-139v-331z" />
    <glyph glyph-name="Q" unicode="Q" horiz-adv-x="526" 
d="M51 130v443q-1 37 23 66t61 43t82 22q86 13 171 -21q86 -35 86 -110v-443q0 -36 -19 -65l61 -70h-68l-30 35q-37 -24 -99 -32q-61 -8 -121 1t-104 43t-43 88zM424 134v439q0 35 -33 57t-81 28t-94 0q-48 -6 -81 -29t-33 -56v-439q0 -13 3 -25q13 -37 69 -53t116 -12
q60 5 92 23l-66 69l67 1l36 -35q5 13 5 32z" />
    <glyph glyph-name="R" unicode="R" horiz-adv-x="469" 
d="M99 268v-268h-49v700h188q64 0 93 -14t49 -26q44 -29 44 -94v-167q0 -39 -27 -71t-68 -40q41 -8 68 -38t27 -71v-179h-50v179q0 31 -34 60t-106 29h-135zM374 399v167q0 42 -44 66t-92 24h-139v-343h135q74 0 107 27t33 59z" />
    <glyph glyph-name="S" unicode="S" horiz-adv-x="468" 
d="M413 578l-50 1q1 47 -49 69t-111 12q-61 -8 -93 -38t-36 -85q-4 -54 26 -90q30 -35 130 -61t156 -74t55 -136t-55 -134t-130 -52t-126 12q-108 40 -106 131l49 -1q1 -30 23 -54t52 -33q122 -34 196 27q46 37 46 86q1 89 -52 127t-143 61q-91 23 -133 69q-42 47 -38 123
t51 119q46 43 127 51t146 -26q65 -35 65 -104z" />
    <glyph glyph-name="T" unicode="T" horiz-adv-x="481" 
d="M22 656v44h431v-44h-190l-2 -656h-51l2 656h-190z" />
    <glyph glyph-name="U" unicode="U" horiz-adv-x="527" 
d="M266 44q158 0 158 87v569h50v-569q0 -67 -58 -103t-149 -34h-10q-91 -2 -149 34t-58 103v569h50v-569q0 -39 38 -63t113 -24h15z" />
    <glyph glyph-name="V" unicode="V" horiz-adv-x="519" 
d="M50 225v476h51v-477q0 -21 3 -29t17 -22l139 -124l139 124q19 19 19 51v477h51v-476q0 -57 -38 -91l-161 -142h-21l-161 142q-38 34 -38 91z" />
    <glyph glyph-name="W" unicode="W" horiz-adv-x="829" 
d="M50 224v476h50v-477q0 -21 3 -29t17 -22l125 -124l124 124q14 14 17 22t3 29v477h51v-477q0 -21 3 -29t16 -22l125 -124l125 124q13 14 16 22t3 29v477h51v-476q0 -54 -38 -91l-146 -142h-22q-9 9 -32 31t-35 33q-56 53 -92 98q-41 -50 -159 -162h-21l-147 142
q-37 37 -37 91z" />
    <glyph glyph-name="X" unicode="X" horiz-adv-x="506" 
d="M47 556v144h50v-145q0 -21 3 -29t17 -22l139 -124l139 124q19 19 19 51v145h51v-144q0 -58 -38 -91l-130 -116l130 -115q38 -33 38 -91v-143h-51v144q0 21 -3 29t-16 22l-139 124l-139 -124q-14 -14 -17 -22t-3 -29v-144h-50v143q0 59 37 91l131 115l-131 116
q-37 32 -37 91z" />
    <glyph glyph-name="Y" unicode="Y" horiz-adv-x="485" 
d="M398 512v188h51v-187q0 -53 -38 -91l-142 -148v-273h-50v273l-142 148q-38 38 -38 91v187h51v-188q0 -32 26 -58l128 -134l128 134q26 26 26 58z" />
    <glyph glyph-name="Z" unicode="Z" horiz-adv-x="464" 
d="M383 615q0 38 -38 38h-302v47h303q46 0 64 -18t19 -67v-44q-2 -99 -124 -185q-51 -36 -103 -72q-124 -86 -125 -184v-36q0 -43 36 -43h317v-50h-317q-43 -1 -63 21t-19 72v37q1 106 125 203q52 40 102 78q124 91 125 159v44z" />
    <glyph glyph-name="grave" unicode="`" horiz-adv-x="184" 
d="M34 781h65l29 -87h-44l-50 80v7z" />
    <glyph glyph-name="a" unicode="a" horiz-adv-x="465" 
d="M344 122v126q-52 16 -120 12t-106 -29q-38 -27 -46 -65q-10 -38 10 -73q31 -55 125 -55q49 0 93 20t44 64zM344 358q0 68 -96 87q-34 5 -88 -3t-83 -49l-43 27q28 46 98 65t139 3q123 -27 123 -134v-263q0 -47 49 -47v-45q-68 -5 -90 40q-53 -52 -146 -52q-123 0 -169 80
q-30 53 -17 109t63 89q91 61 260 29v64z" />
    <glyph glyph-name="b" unicode="b" horiz-adv-x="474" 
d="M101 354v-208q-1 -54 41 -80t86 -26t74 8t50 28q22 20 22 48v223q0 35 -28 59t-68 29t-81 -1q-40 -6 -68 -27q-28 -22 -28 -53zM50 704h51v-271q41 49 119 55t142 -34t63 -109v-221q1 -48 -31 -80t-85 -46t-118 0q-65 16 -94 57v-55h-47v704z" />
    <glyph glyph-name="c" unicode="c" horiz-adv-x="466" 
d="M372 129h50q0 -47 -32 -79t-82 -46v-1q-72 -19 -134 -3q-126 34 -126 131v229q0 48 32 80q56 56 156 56t154 -56q32 -32 32 -80h-50q0 56 -78 78q-29 8 -59 8t-60 -8q-77 -21 -77 -79v-228q0 -58 68 -77t128 -3h1q77 23 77 78z" />
    <glyph glyph-name="d" unicode="d" 
d="M373 146v208q0 31 -28 53q-29 21 -69 27t-80 1t-68 -29t-28 -59v-223h-1q0 -55 78 -77q25 -7 69 -7t86 26t41 80zM373 704h50v-704h-46v55q-29 -41 -95 -57t-118 0q-116 33 -115 126v221q-1 69 63 109t142 34t119 -55v271z" />
    <glyph glyph-name="e" unicode="e" horiz-adv-x="464" 
d="M101 187v-51q0 -25 19 -51q20 -27 68 -35q130 -23 180 50l43 -26q-37 -61 -129 -75q-46 -8 -87 -1q-85 14 -115 56t-30 86v222q0 94 126 128q62 18 130 -2t96 -74q30 -54 14 -113q-32 -113 -194 -117q-24 0 -67 2t-54 1zM101 362v-131q2 0 83 -1t127 21q47 22 59 62
t-10 77q-20 37 -72 51t-98 1q-90 -25 -89 -80z" />
    <glyph glyph-name="f" unicode="f" horiz-adv-x="289" 
d="M152 0h-51v445h-86v46h86v73q0 78 51 111t128 29v-46q-97 -2 -118 -44q-10 -20 -10 -50v-73h118v-46h-118v-445z" />
    <glyph glyph-name="g" unicode="g" horiz-adv-x="480" 
d="M255 498q57 0 109 -33l35 37l38 -33l-35 -37q22 -30 22 -69v-143q0 -87 -101 -122q-63 -19 -127 -10h-1q-11 1 -26 5q-32 0 -37 -24t29 -30q22 -4 63 -4q88 0 132 -13q64 -19 64 -103v-18q0 -85 -94 -111q-31 -10 -80 -10t-84 9q-102 22 -107 108q-2 30 4 48h50
q-22 -81 57 -105q79 -25 146 -2q30 10 44 24t13 39v18q1 34 -23 51t-88 18t-110 4q-54 10 -68 50t20 67q5 5 11 8q-61 36 -61 103v143q0 47 32 79t74 44t99 12zM374 220v143q0 54 -77 77q-27 7 -61 7t-58 -7q-77 -21 -77 -77v-143q0 -32 29 -54q30 -22 62 -27q63 -10 122 10
q60 20 60 71z" />
    <glyph glyph-name="h" unicode="h" horiz-adv-x="473" 
d="M102 0h-51v704h51v-252q48 46 128 48t131 -32q63 -36 64 -103v-365h-50v364q-1 38 -39 60t-98 25h-3q-86 -2 -120 -46q-13 -18 -13 -45v-358z" />
    <glyph glyph-name="i" unicode="i" horiz-adv-x="176" 
d="M63 0v491h51v-491h-51zM60 613v89h57v-89h-57z" />
    <glyph glyph-name="j" unicode="j" horiz-adv-x="168" 
d="M62 617v89h54v-89h-54zM64 493h50v-563q0 -76 -47 -110t-121 -33v51q118 -4 118 91v564z" />
    <glyph glyph-name="k" unicode="k" horiz-adv-x="465" 
d="M100 0h-50v704h50v-456l263 243h67v-5l-227 -208q115 24 185 -42q34 -32 36 -79v-157h-50v155q-1 47 -55 70t-117 13q-62 -10 -82 -36t-20 -53v-149z" />
    <glyph glyph-name="l" unicode="l" horiz-adv-x="199" 
d="M174 41v-45q-64 -4 -94 20t-29 90v594h50v-595q0 -38 16 -51t57 -13z" />
    <glyph glyph-name="m" unicode="m" horiz-adv-x="754" 
d="M398 0h-50v362q-3 44 -38 68t-84 22q-50 -2 -88 -30t-38 -73v-349h-51v491h51v-47q48 53 136 53q48 -1 86 -19t54 -52q40 70 160 68q58 0 110 -36t51 -102v-356h-51v357q0 45 -36 69t-87 23q-50 -1 -86 -23t-39 -64v-362z" />
    <glyph glyph-name="n" unicode="n" horiz-adv-x="474" 
d="M424 0h-51v358q-1 42 -41 66t-96 25t-96 -25t-40 -74v-350h-51v492h51v-46q48 52 130 52t138 -36t56 -105v-357z" />
    <glyph glyph-name="o" unicode="o" horiz-adv-x="469" 
d="M421 362v-232q0 -87 -101 -122q-62 -20 -128 -9t-106 45q-39 34 -39 86v232q-1 47 31 79q55 56 156 56q100 0 156 -56q32 -32 31 -79zM371 130v232q0 54 -77 77q-30 8 -60 8t-60 -8q-77 -21 -77 -77v-232q-1 -66 105 -84q50 -8 102 9q67 23 67 75z" />
    <glyph glyph-name="p" unicode="p" 
d="M99 343v-213q0 -32 28 -54q29 -22 69 -28t80 0q40 4 68 28t28 60v229h1q0 55 -78 77q-25 7 -69 7q-44 -1 -86 -27t-41 -79zM99 -215h-50v704h46v-55q29 41 94 57q65 17 118 1q116 -34 116 -127v-227q1 -70 -63 -110t-142 -32q-78 6 -119 54v-265z" />
    <glyph glyph-name="q" unicode="q" horiz-adv-x="470" 
d="M371 130v213q0 53 -41 79q-40 26 -84 27q-44 -1 -74 -9t-52 -28t-22 -47v-229q0 -36 28 -60t68 -28q40 -6 80 0t69 28q28 22 28 54zM422 -215h-51v265q-40 -48 -118 -54q-77 -6 -141 32q-64 40 -64 110v227q0 93 116 127q53 16 118 -1q65 -16 93 -57v55h47v-704z" />
    <glyph glyph-name="r" unicode="r" horiz-adv-x="319" 
d="M101 0h-51v491h49v-54q29 43 93 57t115 -3l-8 -47q-47 19 -101 0q-97 -33 -97 -92v-352z" />
    <glyph glyph-name="s" unicode="s" horiz-adv-x="445" 
d="M366 128q0 24 -8 39t-20 23q-10 8 -32 14t-36 9t-48 7q-32 4 -50 7q-64 10 -96 39q-30 29 -30 85q1 104 114 137q111 23 169 -4q58 -28 76 -68l-40 -26q-27 44 -87 55t-105 -6q-78 -23 -78 -82q0 -37 19 -52t41 -21q23 -6 37 -8t46 -6t52 -8q127 -21 126 -124t-115 -134
q-34 -10 -74 -10q-157 0 -191 100l43 28q17 -40 66 -64t143 -5q34 10 56 30q22 21 22 45z" />
    <glyph glyph-name="t" unicode="t" horiz-adv-x="289" 
d="M98 702h50v-211h119v-45q-79 0 -119 -1v-307q0 -60 36 -76t92 -18v-46q-78 -4 -128 29t-50 110v309h-86v45h86v211z" />
    <glyph glyph-name="u" unicode="u" horiz-adv-x="480" 
d="M49 490h50v-355q0 -43 41 -67q40 -24 96 -25q56 0 96 26t41 73v348h50v-490h-50v47q-45 -51 -129 -52t-140 35t-55 105v355z" />
    <glyph glyph-name="v" unicode="v" horiz-adv-x="464" 
d="M49 208v282h51v-282q0 -27 17 -43l116 -110l116 110q18 17 18 43v282h50v-282q0 -48 -39 -85l-135 -128h-20l-135 128q-39 37 -39 85z" />
    <glyph glyph-name="w" unicode="w" horiz-adv-x="737" 
d="M48 208v282h51v-282q0 -25 17 -43l105 -110l105 110q18 18 18 43v282h50v-282q0 -25 18 -43l105 -110l105 110q17 18 17 43v282h51v-282q0 -46 -39 -85l-125 -128h-19l-138 146l-138 -146h-19l-125 128q-39 39 -39 85z" />
    <glyph glyph-name="x" unicode="x" horiz-adv-x="460" 
d="M44 428v62h50v-62q0 -26 18 -43l115 -110h1l115 110q18 16 18 43v62h51v-62q0 -48 -39 -85l-104 -98l104 -98q39 -37 39 -85v-62h-51v62q0 27 -18 43l-115 110h-1l-115 -110q-18 -17 -18 -43v-62h-50v62q0 48 39 85l103 98l-103 98q-39 37 -39 85z" />
    <glyph glyph-name="y" unicode="y" horiz-adv-x="471" 
d="M422 490v-567q0 -49 -32 -81q-55 -55 -154 -56q-54 0 -103 20t-71 61l43 23q37 -54 121 -54t114 28q31 28 32 59v115q-48 -46 -128 -48t-132 32q-64 38 -64 107v361h51v-360q1 -42 39 -64t97 -25l3 1q87 0 121 46q13 17 13 45v357h50z" />
    <glyph glyph-name="z" unicode="z" horiz-adv-x="431" 
d="M45 440v50h271q64 -1 85 -51t-28 -91l-273 -241q-20 -21 -12 -39t38 -18h280v-50h-282q-64 0 -85 50t27 92l273 241q22 21 13 39t-38 18h-269z" />
    <glyph glyph-name="exclamdown" unicode="&#xa1;" horiz-adv-x="184" 
d="M63 -197v550h53v-550h-53zM62 433v72h57v-72h-57z" />
    <glyph glyph-name="cent" unicode="&#xa2;" horiz-adv-x="466" 
d="M372 129h50q0 -47 -32 -79t-82 -46v-1q-17 -4 -47 -8v-68h-47v68q-84 3 -125 45t-41 91v229q0 48 42 90t124 45v66h47v-67q80 -4 121 -45q40 -41 40 -89h-50q0 56 -78 78q-29 8 -59 8t-60 -8q-77 -21 -77 -79v-228q0 -58 68 -77t128 -3h1q77 23 77 78z" />
    <glyph glyph-name="sterling" unicode="&#xa3;" horiz-adv-x="615" 
d="M46 300v45h92v220q0 53 42 88t102 42t120 -2t101 -43q42 -34 42 -83v-40h-47v40q0 29 -31 50t-75 27t-90 4q-45 -4 -78 -26q-32 -22 -34 -48t-2 -202v-27h210v-45h-210v-252h198q86 0 108 34q10 16 10 41v38h50v-36q0 -125 -168 -125h-346v48h98v252h-92z" />
    <glyph glyph-name="dieresis" unicode="&#xa8;" horiz-adv-x="356" 
d="M212 642v63h59v-63h-59zM64 642v63h59v-63h-59z" />
    <glyph glyph-name="acute" unicode="&#xb4;" horiz-adv-x="201" 
d="M155 781v-7l-50 -80h-44l29 87h65z" />
    <glyph glyph-name="cedilla" unicode="&#xb8;" horiz-adv-x="273" 
d="M172 -121q0 32 -73 32h-19v6l34 76h38l-23 -53q46 2 70 -18t23 -50t-36 -49t-76 -14t-60 32l28 24q18 -20 56 -16t38 30z" />
    <glyph glyph-name="questiondown" unicode="&#xbf;" horiz-adv-x="483" 
d="M286 513v-59h-55v59h55zM233 397h50v-113q1 -20 -3 -38t-4 -28t-10 -22q-8 -13 -10 -17q-2 -3 -18 -15t-22 -16t-29 -16q-24 -14 -35 -21q-69 -41 -67 -127q0 -58 47 -97q73 -61 196 -27q30 9 52 33t22 55h50q0 -91 -107 -130q-50 -18 -125 -12q-76 6 -130 50t-55 128
q-2 113 92 166q15 8 51 28t46 38q10 19 9 181z" />
    <glyph glyph-name="Agrave" unicode="&#xc0;" horiz-adv-x="534" 
d="M190 825h65l29 -78h-44l-50 72v6zM100 572v-248h324v248q0 37 -41 62t-122 25q-81 -1 -121 -25t-40 -62zM473 572h1v-572h-50v274h-324v-274h-50v572q0 66 58 101t154 35q95 0 153 -35t58 -101z" />
    <glyph glyph-name="Aacute" unicode="&#xc1;" horiz-adv-x="534" 
d="M332 822v-5l-53 -67h-47l31 72h69zM100 572v-248h324v248q0 37 -41 62t-122 25q-81 -1 -121 -25t-40 -62zM473 572h1v-572h-50v274h-324v-274h-50v572q0 66 58 101t154 35q95 0 153 -35t58 -101z" />
    <glyph glyph-name="Acircumflex" unicode="&#xc2;" horiz-adv-x="534" 
d="M100 572v-248h324v248q0 37 -41 62t-122 25q-81 -1 -121 -25t-40 -62zM473 572h1v-572h-50v274h-324v-274h-50v572q0 66 58 101t154 35q95 0 153 -35t58 -101zM266 781l-42 -35h-51l61 69h64l59 -69h-49z" />
    <glyph glyph-name="Atilde" unicode="&#xc3;" horiz-adv-x="534" 
d="M231 777q-27 -2 -32 -28l-31 10q4 20 22 37q36 35 82 4q47 -31 56 6l31 -13q-9 -45 -53 -47q-19 -1 -42 15t-33 16zM100 572v-248h324v248q0 37 -41 62t-122 25q-81 -1 -121 -25t-40 -62zM473 572h1v-572h-50v274h-324v-274h-50v572q0 66 58 101t154 35q95 0 153 -35
t58 -101z" />
    <glyph glyph-name="Adieresis" unicode="&#xc4;" horiz-adv-x="534" 
d="M312 748v55h61v-55h-61zM161 748v55h60v-55h-60zM100 572v-248h324v248q0 37 -41 62t-122 25q-81 -1 -121 -25t-40 -62zM473 572h1v-572h-50v274h-324v-274h-50v572q0 66 58 101t154 35q95 0 153 -35t58 -101z" />
    <glyph glyph-name="Aring" unicode="&#xc5;" horiz-adv-x="534" 
d="M262 807q-24 -1 -24 -23t24 -22t25 22q-1 22 -25 23zM203 785q0 23 17 39t42 16q24 0 42 -16t18 -39t-18 -39t-42 -16q-25 0 -42 16t-17 39zM100 572v-248h324v248q0 37 -41 62t-122 25q-81 -1 -121 -25t-40 -62zM473 572h1v-572h-50v274h-324v-274h-50v572q0 66 58 101
t154 35q95 0 153 -35t58 -101z" />
    <glyph glyph-name="AE" unicode="&#xc6;" horiz-adv-x="830" 
d="M100 565v-227h307v314h-146q-81 0 -121 -24t-40 -63zM457 651v-312h322v-51h-322q0 -163 4 -174q11 -32 51 -48t82 -15h185v-51h-185v1q-72 -1 -130 33t-57 101v153h-307v-288h-50v565q0 66 58 101t155 35h516v-50h-322z" />
    <glyph glyph-name="Ccedilla" unicode="&#xc7;" horiz-adv-x="516" 
d="M315 -96q0 32 -73 32h-19v6l24 54q-113 5 -164 56q-32 32 -33 79v439q0 52 38 86t88 42q109 21 203 -10q95 -31 95 -118h-50q0 52 -67 75q-71 23 -137 11q-120 -22 -120 -86v-439q0 -55 80 -77q34 -9 84 -9t85 10q75 21 75 76l50 1q0 -47 -30 -79q-52 -55 -159 -57
l-13 -31q46 3 70 -17t23 -50t-36 -50q-35 -19 -76 -14t-60 32l28 24q18 -20 56 -16t38 30z" />
    <glyph glyph-name="Egrave" unicode="&#xc8;" 
d="M174 814h66l30 -69h-45l-51 64v5zM100 651v-275h322v-51h-322q0 -200 4 -211q11 -32 51 -48t82 -15h185v-51h-185v1q-71 -1 -129 33t-58 101v566h372v-50h-322z" />
    <glyph glyph-name="Eacute" unicode="&#xc9;" 
d="M100 376h322v-51h-322q0 -200 4 -211q11 -32 51 -48t82 -15h185v-51h-185v1q-71 -1 -129 33t-58 101v566h372v-50h-322v-275zM306 814v-5l-51 -64h-45l30 69h66z" />
    <glyph glyph-name="Ecircumflex" unicode="&#xca;" 
d="M252 783l-42 -38h-51l61 67h64l59 -67h-49zM100 376h322v-51h-322q0 -200 4 -211q11 -32 51 -48t82 -15h185v-51h-185v1q-71 -1 -129 33t-58 101v566h372v-50h-322v-275z" />
    <glyph glyph-name="Edieresis" unicode="&#xcb;" 
d="M300 750v51h60v-51h-60zM149 750v51h60v-51h-60zM100 651v-275h322v-51h-322q0 -200 4 -211q11 -32 51 -48t82 -15h185v-51h-185v1q-71 -1 -129 33t-58 101v566h372v-50h-322z" />
    <glyph glyph-name="Igrave" unicode="&#xcc;" horiz-adv-x="179" 
d="M19 814h66l30 -69h-45l-51 64v5zM63 701h50v-701h-50v701z" />
    <glyph glyph-name="Iacute" unicode="&#xcd;" horiz-adv-x="179" 
d="M113 701v-701h-50v701h50zM162 816v-5l-51 -64h-45l30 69h66z" />
    <glyph glyph-name="Icircumflex" unicode="&#xce;" horiz-adv-x="179" 
d="M90 785l-41 -40h-49l59 71h63l58 -71h-48zM113 701v-701h-50v701h50z" />
    <glyph glyph-name="Idieresis" unicode="&#xcf;" horiz-adv-x="179" 
d="M139 746v58h59v-58h-59zM-9 746v58h59v-58h-59zM63 701h50v-701h-50v701z" />
    <glyph glyph-name="Ntilde" unicode="&#xd1;" horiz-adv-x="530" 
d="M234 774q-27 -2 -32 -28l-31 10q3 20 21 37q36 35 83 4t56 6l31 -13q-9 -45 -53 -47q-19 -1 -42 15t-33 16zM474 700v-700h-53l-301 565l-25 67h-4l9 -71v-561h-50v700h54l301 -565l25 -66h3l-9 71v560h50z" />
    <glyph glyph-name="Ograve" unicode="&#xd2;" horiz-adv-x="525" 
d="M201 816h66l30 -69h-45l-51 64v5zM51 128v446q-1 51 43 86t106 43t124 0t106 -43t43 -86v-446q1 -52 -43 -88t-106 -43q-62 -8 -124 0q-62 7 -106 43t-43 88zM419 107q3 6 3 26l1 441q0 34 -33 57q-32 23 -80 28t-96 0t-80 -28q-33 -23 -33 -57l1 -441q0 -20 3 -26
q13 -41 85 -58t144 0t85 58z" />
    <glyph glyph-name="Oacute" unicode="&#xd3;" horiz-adv-x="525" 
d="M51 574q-1 51 43 86t106 43t124 0t106 -43t43 -86v-446q1 -52 -43 -88t-106 -43q-62 -8 -124 0q-62 7 -106 43t-43 88v446zM419 107q3 6 3 26l1 441q0 34 -33 57q-32 23 -80 28t-96 0t-80 -28q-33 -23 -33 -57l1 -441q0 -20 3 -26q13 -41 85 -58t144 0t85 58zM328 814v-5
l-51 -64h-45l30 69h66z" />
    <glyph glyph-name="Ocircumflex" unicode="&#xd4;" horiz-adv-x="525" 
d="M263 783l-42 -38h-51l61 67h64l59 -67h-49zM51 574q-1 51 43 86t106 43t124 0t106 -43t43 -86v-446q1 -52 -43 -88t-106 -43q-62 -8 -124 0q-62 7 -106 43t-43 88v446zM419 107q3 6 3 26l1 441q0 34 -33 57q-32 23 -80 28t-96 0t-80 -28q-33 -23 -33 -57l1 -441
q0 -20 3 -26q13 -41 85 -58t144 0t85 58z" />
    <glyph glyph-name="Otilde" unicode="&#xd5;" horiz-adv-x="525" 
d="M229 775q-27 -2 -32 -28l-31 10q4 20 22 37q36 35 82 4q47 -31 56 6l31 -13q-9 -45 -53 -47q-19 -1 -42 15t-33 16zM51 128v446q-1 51 43 86t106 43t124 0t106 -43t43 -86v-446q1 -52 -43 -88t-106 -43q-62 -8 -124 0q-62 7 -106 43t-43 88zM419 107q3 6 3 26l1 441
q0 34 -33 57q-32 23 -80 28t-96 0t-80 -28q-33 -23 -33 -57l1 -441q0 -20 3 -26q13 -41 85 -58t144 0t85 58z" />
    <glyph glyph-name="Odieresis" unicode="&#xd6;" horiz-adv-x="525" 
d="M308 748v53h59v-53h-59zM161 748v53h58v-53h-58zM51 128v446q-1 51 43 86t106 43t124 0t106 -43t43 -86v-446q1 -52 -43 -88t-106 -43q-62 -8 -124 0q-62 7 -106 43t-43 88zM419 107q3 6 3 26l1 441q0 34 -33 57q-32 23 -80 28t-96 0t-80 -28q-33 -23 -33 -57l1 -441
q0 -20 3 -26q13 -41 85 -58t144 0t85 58z" />
    <glyph glyph-name="Oslash" unicode="&#xd8;" horiz-adv-x="525" 
d="M101 574l1 -441q0 -28 14 -46l248 557q-124 40 -216 -6q-48 -24 -47 -64zM419 107q3 6 3 26l1 441q0 25 -19 44l-248 -558q62 -29 154 -15t109 62zM51 128v446q1 45 35 77t84 45q115 30 212 -10l24 53h52l-34 -76q49 -36 49 -89v-446q1 -46 -35 -79t-88 -46
q-117 -29 -214 13l-26 -58h-51l36 82q-44 36 -44 88z" />
    <glyph glyph-name="Ugrave" unicode="&#xd9;" horiz-adv-x="527" 
d="M196 814h66l30 -69h-45l-51 64v5zM266 44q158 0 158 87v569h50v-569q0 -67 -58 -103t-149 -34h-10q-91 -2 -149 34t-58 103v569h50v-569q0 -39 38 -63t113 -24h15z" />
    <glyph glyph-name="Uacute" unicode="&#xda;" horiz-adv-x="527" 
d="M266 44q158 0 158 87v569h50v-569q0 -67 -58 -103t-149 -34h-10q-91 -2 -149 34t-58 103v569h50v-569q0 -39 38 -63t113 -24h15zM318 814v-5l-51 -64h-45l30 69h66z" />
    <glyph glyph-name="Ucircumflex" unicode="&#xdb;" horiz-adv-x="527" 
d="M268 784l-41 -38h-49l59 67h63l57 -67h-48zM266 44q158 0 158 87v569h50v-569q0 -67 -58 -103t-149 -34h-10q-91 -2 -149 34t-58 103v569h50v-569q0 -39 38 -63t113 -24h15z" />
    <glyph glyph-name="Udieresis" unicode="&#xdc;" horiz-adv-x="527" 
d="M313 746v57h59v-57h-59zM164 746v57h60v-57h-60zM266 44q158 0 158 87v569h50v-569q0 -67 -58 -103t-149 -34h-10q-91 -2 -149 34t-58 103v569h50v-569q0 -39 38 -63t113 -24h15z" />
    <glyph glyph-name="Yacute" unicode="&#xdd;" horiz-adv-x="485" 
d="M311 826v-6l-52 -70h-47l31 76h68zM398 512v188h51v-187q0 -53 -38 -91l-142 -148v-273h-50v273l-142 148q-38 38 -38 91v187h51v-188q0 -32 26 -58l128 -134l128 134q26 26 26 58z" />
    <glyph glyph-name="agrave" unicode="&#xe0;" horiz-adv-x="465" 
d="M153 670h65l29 -87h-44l-50 80v7zM344 122v126q-52 16 -120 12t-106 -29q-38 -27 -46 -65q-10 -38 10 -73q31 -55 125 -55q49 0 93 20t44 64zM344 358q0 68 -96 87q-34 5 -88 -3t-83 -49l-43 27q28 46 98 65t139 3q123 -27 123 -134v-263q0 -47 49 -47v-45q-68 -5 -90 40
q-53 -52 -146 -52q-123 0 -169 80q-30 53 -17 109t63 89q91 61 260 29v64z" />
    <glyph glyph-name="aacute" unicode="&#xe1;" horiz-adv-x="465" 
d="M282 671v-7l-50 -80h-44l29 87h65zM344 122v126q-52 16 -120 12t-106 -29q-38 -27 -46 -65q-10 -38 10 -73q31 -55 125 -55q49 0 93 20t44 64zM344 358q0 68 -96 87q-34 5 -88 -3t-83 -49l-43 27q28 46 98 65t139 3q123 -27 123 -134v-263q0 -47 49 -47v-45
q-68 -5 -90 40q-53 -52 -146 -52q-123 0 -169 80q-30 53 -17 109t63 89q91 61 260 29v64z" />
    <glyph glyph-name="acircumflex" unicode="&#xe2;" horiz-adv-x="465" 
d="M221 628l-42 -47h-50l60 83h64l59 -83h-49zM344 122v126q-52 16 -120 12t-106 -29q-38 -27 -46 -65q-10 -38 10 -73q31 -55 125 -55q49 0 93 20t44 64zM344 358q0 68 -96 87q-34 5 -88 -3t-83 -49l-43 27q28 46 98 65t139 3q123 -27 123 -134v-263q0 -47 49 -47v-45
q-68 -5 -90 40q-53 -52 -146 -52q-123 0 -169 80q-30 53 -17 109t63 89q91 61 260 29v64z" />
    <glyph glyph-name="atilde" unicode="&#xe3;" horiz-adv-x="465" 
d="M182 611q-27 -2 -32 -28l-31 10q3 20 21 37q36 35 83 4t56 6l31 -13q-9 -45 -53 -47q-19 -1 -42 15t-33 16zM344 122v126q-52 16 -120 12t-106 -29q-38 -27 -46 -65q-10 -38 10 -73q31 -55 125 -55q49 0 93 20t44 64zM344 358q0 68 -96 87q-34 5 -88 -3t-83 -49l-43 27
q28 46 98 65t139 3q123 -27 123 -134v-263q0 -47 49 -47v-45q-68 -5 -90 40q-53 -52 -146 -52q-123 0 -169 80q-30 53 -17 109t63 89q91 61 260 29v64z" />
    <glyph glyph-name="adieresis" unicode="&#xe4;" horiz-adv-x="465" 
d="M265 586v53h56v-53h-56zM123 586v53h57v-53h-57zM344 122v126q-52 16 -120 12t-106 -29q-38 -27 -46 -65q-10 -38 10 -73q31 -55 125 -55q49 0 93 20t44 64zM344 358q0 68 -96 87q-34 5 -88 -3t-83 -49l-43 27q28 46 98 65t139 3q123 -27 123 -134v-263q0 -47 49 -47v-45
q-68 -5 -90 40q-53 -52 -146 -52q-123 0 -169 80q-30 53 -17 109t63 89q91 61 260 29v64z" />
    <glyph glyph-name="aring" unicode="&#xe5;" horiz-adv-x="465" 
d="M213 650q-22 0 -22 -22t22 -22t22 22t-22 22zM159 628q-1 22 15 38t38 16t38 -16t16 -38t-16 -38t-38 -15q-22 -1 -38 15t-15 38zM344 122v126q-52 16 -120 12t-106 -29q-38 -27 -46 -65q-10 -38 10 -73q31 -55 125 -55q49 0 93 20t44 64zM344 358q0 68 -96 87
q-34 5 -88 -3t-83 -49l-43 27q28 46 98 65t139 3q123 -27 123 -134v-263q0 -47 49 -47v-45q-68 -5 -90 40q-53 -52 -146 -52q-123 0 -169 80q-30 53 -17 109t63 89q91 61 260 29v64z" />
    <glyph glyph-name="ae" unicode="&#xe6;" horiz-adv-x="751" 
d="M394 231q2 0 83 -1t128 21t59 62t-10 77q-20 37 -71 51t-98 1q-89 -25 -91 -78v-133zM344 136v112q-52 16 -120 12t-106 -29q-38 -27 -46 -65q-10 -38 10 -73q31 -55 125 -55q33 0 77 16t66 42q-6 18 -6 40zM394 187v-51q0 -23 20 -50q20 -28 68 -36q130 -23 180 50
l43 -26q-37 -61 -129 -75q-130 -23 -203 55q-29 -33 -77 -50t-85 -17t-89 14t-84 66q-30 53 -17 109t63 89q91 61 260 29v68q-6 65 -96 83q-34 5 -88 -3t-83 -49l-43 27q28 46 96 66t139 4q70 -16 100 -68q31 49 97 67q66 19 134 -1t96 -74q30 -54 14 -113
q-32 -113 -194 -117q-24 0 -68 2q-43 2 -54 1z" />
    <glyph glyph-name="ccedilla" unicode="&#xe7;" horiz-adv-x="466" 
d="M270 -88q0 29 -76 29h-13v5l24 50q-77 5 -117 46q-40 40 -40 89v229q0 48 32 80q56 56 156 56t154 -56q32 -32 32 -80h-50q0 56 -78 78q-29 8 -59 8t-60 -8q-77 -21 -77 -79v-228q0 -58 68 -77t128 -3h1q77 23 77 78h50q0 -47 -32 -79t-82 -46v-1q-33 -8 -67 -9l-12 -27
q44 1 67 -17t22 -44q0 -26 -34 -43t-74 -13t-58 29l27 21q17 -18 54 -14t37 26z" />
    <glyph glyph-name="egrave" unicode="&#xe8;" horiz-adv-x="457" 
d="M169 670h65l29 -87h-44l-50 80v7zM101 187v-51q0 -25 19 -51q20 -27 68 -35q130 -23 180 50l43 -26q-37 -61 -129 -75q-46 -8 -87 -1q-85 14 -115 56t-30 86v222q0 94 126 128q62 18 130 -2t96 -74q30 -54 14 -113q-32 -113 -194 -117q-24 0 -67 2t-54 1zM101 362v-131
q2 0 83 -1t127 21q47 22 59 62t-10 77q-20 37 -72 51t-98 1q-90 -25 -89 -80z" />
    <glyph glyph-name="eacute" unicode="&#xe9;" horiz-adv-x="457" 
d="M295 666v-7l-50 -80h-44l29 87h65zM101 136q0 -25 19 -51q20 -27 68 -35q130 -23 180 50l43 -26q-37 -61 -129 -75q-46 -8 -87 -1q-85 14 -115 56t-30 86v222q0 94 125 128q62 18 130 -2q67 -20 97 -74t14 -113q-32 -113 -194 -117q-24 0 -67 2t-54 1v-51zM101 362v-131
q2 0 83 -1t127 21q47 22 59 62t-10 77q-20 37 -71 51t-98 1q-90 -25 -90 -80z" />
    <glyph glyph-name="ecircumflex" unicode="&#xea;" horiz-adv-x="457" 
d="M230 629l-42 -47h-50l60 83h64l59 -83h-49zM101 136q0 -25 19 -51q20 -27 68 -35q130 -23 180 50l43 -26q-37 -61 -129 -75q-46 -8 -87 -1q-85 14 -115 56t-30 86v222q0 94 125 128q62 18 130 -2q67 -20 97 -74t14 -113q-32 -113 -194 -117q-24 0 -67 2t-54 1v-51z
M101 362v-131q2 0 83 -1t127 21q47 22 59 62t-10 77q-20 37 -71 51t-98 1q-90 -25 -90 -80z" />
    <glyph glyph-name="edieresis" unicode="&#xeb;" horiz-adv-x="457" 
d="M280 578v63h59v-63h-59zM132 578v63h59v-63h-59zM101 187v-51q0 -25 19 -51q20 -27 68 -35q130 -23 180 50l43 -26q-37 -61 -129 -75q-46 -8 -87 -1q-85 14 -115 56t-30 86v222q0 94 126 128q62 18 130 -2t96 -74q30 -54 14 -113q-32 -113 -194 -117q-24 0 -67 2t-54 1z
M101 362v-131q2 0 83 -1t127 21q47 22 59 62t-10 77q-20 37 -72 51t-98 1q-90 -25 -89 -80z" />
    <glyph glyph-name="igrave" unicode="&#xec;" horiz-adv-x="176" 
d="M21 673h65l29 -87h-44l-50 80v7zM63 0v491h51v-491h-51z" />
    <glyph glyph-name="iacute" unicode="&#xed;" horiz-adv-x="176" 
d="M153 673v-7l-50 -80h-44l29 87h65zM63 491h51v-491h-51v491z" />
    <glyph glyph-name="icircumflex" unicode="&#xee;" horiz-adv-x="176" 
d="M88 633l-42 -47h-50l60 83h64l59 -83h-49zM63 491h51v-491h-51v491z" />
    <glyph glyph-name="idieresis" unicode="&#xef;" horiz-adv-x="176" 
d="M135 627v63h59v-63h-59zM-13 627v63h59v-63h-59zM63 0v491h51v-491h-51z" />
    <glyph glyph-name="ntilde" unicode="&#xf1;" horiz-adv-x="474" 
d="M209 612q-27 -2 -32 -28l-31 10q4 20 22 37q36 35 82 4q47 -31 56 6l31 -13q-9 -45 -53 -47q-19 -1 -42 15t-33 16zM424 0h-51v358q-1 42 -41 66t-96 25t-96 -25t-40 -74v-350h-51v492h51v-46q48 52 130 52t138 -36t56 -105v-357z" />
    <glyph glyph-name="ograve" unicode="&#xf2;" horiz-adv-x="469" 
d="M174 666h65l29 -87h-44l-50 80v7zM421 362v-232q0 -87 -101 -122q-62 -20 -128 -9t-106 45q-39 34 -39 86v232q-1 47 31 79q55 56 156 56q100 0 156 -56q32 -32 31 -79zM371 130v232q0 54 -77 77q-30 8 -60 8t-60 -8q-77 -21 -77 -77v-232q-1 -66 105 -84q50 -8 102 9
q67 23 67 75z" />
    <glyph glyph-name="oacute" unicode="&#xf3;" horiz-adv-x="469" 
d="M307 665v-7l-50 -80h-44l29 87h65zM421 130q0 -87 -101 -122q-62 -20 -128 -9t-106 45q-39 34 -39 86v232q-1 47 31 79q55 56 156 56q100 0 156 -56q32 -32 31 -79v-232zM371 130v232q0 54 -77 77q-30 8 -60 8t-60 -8q-77 -21 -77 -77v-232q-1 -66 105 -84q50 -8 102 9
q67 23 67 75z" />
    <glyph glyph-name="ocircumflex" unicode="&#xf4;" horiz-adv-x="469" 
d="M237 630l-42 -47h-50l60 83h64l59 -83h-49zM421 130q0 -87 -101 -122q-62 -20 -128 -9t-106 45q-39 34 -39 86v232q-1 47 31 79q55 56 156 56q100 0 156 -56q32 -32 31 -79v-232zM371 130v232q0 54 -77 77q-30 8 -60 8t-60 -8q-77 -21 -77 -77v-232q-1 -66 105 -84
q50 -8 102 9q67 23 67 75z" />
    <glyph glyph-name="otilde" unicode="&#xf5;" horiz-adv-x="469" 
d="M207 612q-27 -2 -32 -28l-31 10q4 20 22 37q36 35 82 4q47 -31 56 6l31 -13q-9 -45 -53 -47q-19 -1 -42 15t-33 16zM421 362v-232q0 -87 -101 -122q-62 -20 -128 -9t-106 45q-39 34 -39 86v232q-1 47 31 79q55 56 156 56q100 0 156 -56q32 -32 31 -79zM371 130v232
q0 54 -77 77q-30 8 -60 8t-60 -8q-77 -21 -77 -77v-232q-1 -66 105 -84q50 -8 102 9q67 23 67 75z" />
    <glyph glyph-name="odieresis" unicode="&#xf6;" horiz-adv-x="469" 
d="M281 580v63h59v-63h-59zM133 580v63h59v-63h-59zM421 362v-232q0 -87 -101 -122q-62 -20 -128 -9t-106 45q-39 34 -39 86v232q-1 47 31 79q55 56 156 56q100 0 156 -56q32 -32 31 -79zM371 130v232q0 54 -77 77q-30 8 -60 8t-60 -8q-77 -21 -77 -77v-232q-1 -66 105 -84
q50 -8 102 9q67 23 67 75z" />
    <glyph glyph-name="oslash" unicode="&#xf8;" horiz-adv-x="469" 
d="M234 447q-30 0 -60 -8q-77 -21 -77 -77v-232q0 -28 20 -48l194 351l-17 6q-30 8 -60 8zM371 130v232q0 26 -21 47l-195 -351q74 -30 145 -5t71 77zM243 497q48 0 92 -20l22 40h53l-35 -63q46 -36 46 -92v-232q0 -87 -101 -122q-62 -20 -114 -12t-75 19l-25 -46h-51l38 68
q-46 36 -46 93v232q-1 47 31 79t74 44t91 12z" />
    <glyph glyph-name="ugrave" unicode="&#xf9;" 
d="M175 671h65l29 -87h-44l-50 80v7zM49 490h50v-355q0 -43 41 -67q40 -24 96 -25q56 0 96 26t41 73v348h50v-490h-50v47q-45 -51 -129 -52t-140 35t-55 105v355z" />
    <glyph glyph-name="uacute" unicode="&#xfa;" 
d="M297 669v-7l-50 -80h-44l29 87h65zM49 490h50v-355q0 -43 41 -67q40 -24 96 -25q56 0 96 26t41 73v348h50v-490h-50v47q-45 -51 -129 -52t-140 35t-55 105v355z" />
    <glyph glyph-name="ucircumflex" unicode="&#xfb;" 
d="M240 629l-42 -47h-50l60 83h64l59 -83h-49zM49 490h50v-355q0 -43 41 -67q40 -24 96 -25q56 0 96 26t41 73v348h50v-490h-50v47q-45 -51 -129 -52t-140 35t-55 105v355z" />
    <glyph glyph-name="udieresis" unicode="&#xfc;" 
d="M279 582v63h59v-63h-59zM131 582v63h59v-63h-59zM49 490h50v-355q0 -43 41 -67q40 -24 96 -25q56 0 96 26t41 73v348h50v-490h-50v47q-45 -51 -129 -52t-140 35t-55 105v355z" />
    <glyph glyph-name="yacute" unicode="&#xfd;" horiz-adv-x="471" 
d="M304 669v-7l-50 -80h-44l29 87h65zM422 490v-567q0 -49 -32 -81q-55 -55 -154 -56q-54 0 -103 20t-71 61l43 23q37 -54 121 -54t114 28q31 28 32 59v115q-48 -46 -128 -48t-132 32q-64 38 -64 107v361h51v-360q1 -42 39 -64t97 -25l3 1q87 0 121 46q13 17 13 45v357h50z
" />
    <glyph glyph-name="ydieresis" unicode="&#xff;" horiz-adv-x="471" 
d="M288 587v63h59v-63h-59zM140 587v63h59v-63h-59zM422 490v-567q0 -49 -32 -81q-55 -55 -154 -56q-54 0 -103 20t-71 61l43 23q37 -54 121 -54t114 28q31 28 32 59v115q-48 -46 -128 -48t-132 32q-64 38 -64 107v361h51v-360q1 -42 39 -64t97 -25l3 1q87 0 121 46
q13 17 13 45v357h50z" />
    <glyph glyph-name="OE" unicode="&#x152;" horiz-adv-x="839" 
d="M422 133v491q-34 33 -112 40t-144 -18t-65 -72l1 -441q0 -20 3 -26q13 -41 85 -58t144 0t85 58q3 6 3 26zM472 651v-275h322v-51h-322q0 -200 4 -211q11 -32 51 -48t82 -15h185v-51h-185q-112 0 -160 68q-39 -58 -136 -72t-179 22t-83 110v446q0 48 41 82t99 46
q59 12 123 6t108 -30v23h372v-50h-322z" />
    <glyph glyph-name="oe" unicode="&#x153;" horiz-adv-x="778" 
d="M421 231q2 0 83 -1t128 21q46 22 58 62t-8 77t-72 51t-98 1q-88 -25 -91 -77v-134zM371 130v232q0 54 -77 77q-30 8 -60 8t-60 -8q-77 -21 -77 -77v-232q-1 -66 105 -84q50 -8 102 9q67 23 67 75zM421 187v-57q1 -20 20 -46t67 -34q130 -23 181 50l43 -26
q-37 -61 -129 -75q-47 -8 -87 -1q-84 12 -119 74q-19 -44 -79 -64t-126 -9t-106 45q-39 34 -39 86v232q-1 47 31 79q55 56 165 56q109 0 153 -75q30 48 96 66t134 0q68 -20 98 -74t12 -113q-32 -113 -194 -117q-24 0 -67 2t-54 1z" />
    <glyph glyph-name="Scaron" unicode="&#x160;" horiz-adv-x="468" 
d="M229 778l47 40h54l-65 -70h-71l-65 70h54zM363 579q1 47 -49 69t-111 12q-61 -8 -93 -38t-36 -85q-4 -54 26 -90q30 -35 130 -61t156 -74t55 -136t-55 -134t-130 -52t-126 12q-108 40 -106 131l49 -1q1 -30 23 -54t52 -33q122 -34 196 27q46 37 46 86q1 89 -52 127
t-143 61q-91 23 -133 69q-42 47 -38 123t51 119q46 43 127 51t146 -26q65 -35 65 -104z" />
    <glyph glyph-name="scaron" unicode="&#x161;" horiz-adv-x="445" 
d="M231 591l45 45h54l-65 -79h-69l-64 79h53zM366 128q0 24 -8 39t-20 23q-10 8 -32 14t-36 9t-48 7q-32 4 -50 7q-64 10 -96 39q-30 29 -30 85q1 104 114 137q111 23 169 -4q58 -28 76 -68l-40 -26q-27 44 -87 55t-105 -6q-78 -23 -78 -82q0 -37 19 -52t41 -21q23 -6 37 -8
t46 -6t52 -8q127 -21 126 -124t-115 -134q-34 -10 -74 -10q-157 0 -191 100l43 28q17 -40 66 -64t143 -5q34 10 56 30q22 21 22 45z" />
    <glyph glyph-name="Ydieresis" unicode="&#x178;" horiz-adv-x="485" 
d="M287 746v55h56v-55h-56zM145 746v55h57v-55h-57zM398 512v188h51v-187q0 -53 -38 -91l-142 -148v-273h-50v273l-142 148q-38 38 -38 91v187h51v-188q0 -32 26 -58l128 -134l128 134q26 26 26 58z" />
    <glyph glyph-name="Zcaron" unicode="&#x17d;" horiz-adv-x="464" 
d="M238 779l46 39h56l-67 -68h-70l-65 68h54zM383 615q0 38 -38 38h-302v47h303q46 0 64 -18t19 -67v-44q-2 -99 -124 -185q-51 -36 -103 -72q-124 -86 -125 -184v-36q0 -43 36 -43h317v-50h-317q-43 -1 -63 21t-19 72v37q1 106 125 203q52 40 102 78q124 91 125 159v44z
" />
    <glyph glyph-name="zcaron" unicode="&#x17e;" horiz-adv-x="431" 
d="M228 580l42 40h52l-62 -70h-65l-60 70h50zM45 490h271q64 -1 85 -51t-28 -91l-273 -241q-20 -21 -12 -39t38 -18h280v-50h-282q-64 0 -85 50t27 92l273 241q22 21 13 39t-38 18h-269v50z" />
    <glyph glyph-name="florin" unicode="&#x192;" horiz-adv-x="377" 
d="M319 445h-118l-64 -457q-21 -149 -189 -140l7 46q91 2 115 44q12 20 16 50l64 457h-86l7 46h86l10 73q11 78 67 111t131 29l-6 -46q-96 -2 -124 -44q-13 -20 -17 -50l-10 -73h118z" />
    <glyph glyph-name="circumflex" unicode="&#x2c6;" horiz-adv-x="317" 
d="M164 741l-42 -47h-50l60 83h64l59 -83h-49z" />
    <glyph glyph-name="caron" unicode="&#x2c7;" horiz-adv-x="247" 
d="M116 701l42 47h50l-60 -83h-64l-59 83h49z" />
    <glyph glyph-name="ring" unicode="&#x2da;" horiz-adv-x="178" 
d="M79 685q-22 0 -22 -22t22 -22t22 22t-22 22zM25 663q-1 23 15 39t38 15q22 1 38 -15t16 -38t-16 -38t-38 -16t-38 15t-15 38z" />
    <glyph glyph-name="tilde" unicode="&#x2dc;" horiz-adv-x="292" 
d="M108 665q-27 -2 -32 -28l-31 10q3 20 21 37q36 35 83 4t56 6l31 -13q-9 -45 -53 -47q-19 -1 -42 15t-33 16z" />
    <glyph glyph-name="quoteleft" unicode="&#x2018;" horiz-adv-x="203" 
d="M140 647v-67h-60v67q0 59 54 53v-22q-8 0 -14 -10t-2 -21h22z" />
    <glyph glyph-name="quoteright" unicode="&#x2019;" horiz-adv-x="197" 
d="M80 634v67h60v-67q0 -59 -54 -53v22q8 -1 14 9t2 22h-22z" />
    <glyph glyph-name="quotesinglbase" unicode="&#x201a;" horiz-adv-x="232" 
d="M80 2v67h60v-67q0 -59 -54 -53v22q8 -1 14 9t2 22h-22z" />
    <glyph glyph-name="quotedblleft" unicode="&#x201c;" horiz-adv-x="313" 
d="M246 647v-67h-60v67q0 59 54 53v-22q-8 0 -14 -10t-2 -21h22zM140 647v-67h-60v67q0 59 54 53v-22q-8 0 -14 -10t-2 -21h22z" />
    <glyph glyph-name="quotedblright" unicode="&#x201d;" horiz-adv-x="315" 
d="M80 634v67h60v-67q0 -59 -54 -53v22q8 -1 14 9t2 22h-22zM186 634v67h60v-67q0 -59 -54 -53v22q8 -1 14 9t2 22h-22z" />
    <glyph glyph-name="quotedblbase" unicode="&#x201e;" horiz-adv-x="321" 
d="M192 2v67h60v-67q0 -59 -54 -53v22q8 -1 14 9t2 22h-22zM80 2v67h60v-67q0 -59 -54 -53v22q8 -1 14 9t2 22h-22z" />
    <glyph glyph-name="ellipsis" unicode="&#x2026;" horiz-adv-x="516" 
d="M395 -1v68h60v-68h-60zM230 -1v68h60v-68h-60zM67 -1v68h60v-68h-60z" />
    <glyph glyph-name="Euro" unicode="&#x20ac;" horiz-adv-x="522" 
d="M50 269h-48v45h48v52h-48v45h48v159q0 52 38 86t88 42q109 21 203 -10q95 -31 95 -118h-50q0 52 -67 75q-71 23 -137 11q-120 -22 -120 -86v-159h148v-45h-148v-52h148v-45h-148v-138q0 -55 80 -77q34 -9 84 -9t85 10q75 21 75 76l50 1q0 -47 -30 -79q-30 -33 -76 -45
t-104 -12t-104 12t-77 44q-32 32 -33 79v138z" />
    </font>
</defs>
</svg>
